<?xml version="1.0" encoding="UTF-8"?>
<svg id="Layer_1" xmlns="http://www.w3.org/2000/svg" version="1.1" viewBox="0 0 512 512">
  <!-- Generator: Adobe Illustrator 30.5.1, SVG Export Plug-In . SVG Version: 2.1.4 Build 3)  -->
  <defs>
    <style>
      .st0 {
        fill: #fc5434;
      }

      .st1 {
        fill: #fff;
      }
    </style>
  </defs>
  <rect class="st0" width="512" height="512"/>
  <g>
    <path class="st1" d="M372.6,258.3c27.7-24,47.5-56.5,55.5-93.6-11.3-35.3-44.7-61.1-84.1-61.1v22.1c0,47.9-38,86.9-85.5,88.7h-5.5c-47.5-1.4-85.5-40.3-85.5-88.3v-22.1c-39.4,0-72.8,25.8-84.1,61.1,8.1,37.1,28.1,69.6,55.5,93.6-27.7,24-47.5,56.5-55.5,93.6,10.8,35.3,44.2,60.6,83.6,60.6v-22.1c0-47.9,38-86.9,85.5-88.7h5.5c47.5,1.4,85.5,40.3,85.5,88.3v22.6c39.4,0,72.8-25.8,84.1-61.1-7.6-36.6-27.7-69.1-55.1-93.6h.1Z"/>
    <circle class="st1" cx="256" cy="162" r="37.6"/>
    <path class="st1" d="M256,113.1c4.6,0,8.5.5,12.7,1.8.5-.9.5-2.3.5-3.2,0-7.1-6-13.1-13.1-13.1s-13.1,6-13.1,13.1,0,2.3.5,3.2c4.1-.9,8.1-1.8,12.7-1.8h-.2Z"/>
  </g>
</svg>